<?xml version="1.0" standalone="no"?>
<!DOCTYPE svg PUBLIC "-//W3C//DTD SVG 20010904//EN"
 "http://www.w3.org/TR/2001/REC-SVG-20010904/DTD/svg10.dtd">
<svg version="1.0" xmlns="http://www.w3.org/2000/svg"
 width="416.000000pt" height="416.000000pt" viewBox="0 0 416.000000 416.000000"
 preserveAspectRatio="xMidYMid meet">

<g transform="translate(0.000000,416.000000) scale(0.100000,-0.100000)"
fill="#000000" stroke="none">
<path d="M2370 3629 c-19 -12 -38 -27 -42 -33 -4 -6 -11 -16 -16 -23 -6 -9
-31 -7 -107 9 -142 30 -310 29 -430 -1 -111 -27 -227 -72 -233 -89 -5 -16 137
-83 228 -108 81 -22 278 -25 368 -5 34 7 62 17 62 21 0 12 -151 78 -220 96
-85 23 -329 27 -379 7 -18 -8 -35 -12 -38 -10 -15 15 255 92 357 102 70 7 203
-6 313 -31 104 -24 74 -26 -43 -4 -170 33 -329 27 -475 -19 -86 -27 -56 -25
59 4 145 37 281 34 494 -11 27 -5 32 -11 32 -36 0 -38 23 -81 54 -102 28 -18
186 -57 199 -49 4 2 -2 19 -13 38 l-20 33 37 29 36 30 -21 35 -22 35 32 26
c18 14 30 28 26 32 -9 9 -148 45 -178 45 -14 0 -41 -10 -60 -21z m138 -5 c101
-24 99 -23 71 -41 -36 -25 -39 -33 -21 -71 l17 -34 -33 -28 c-33 -28 -33 -28
-18 -59 16 -29 15 -31 -1 -31 -29 1 -127 26 -152 39 -32 17 -61 70 -61 111 0
46 33 98 73 115 41 18 45 18 125 -1z m-534 -140 c94 -24 211 -75 194 -85 -28
-16 -193 -31 -264 -25 -84 8 -190 36 -271 72 -69 30 -62 39 43 53 87 12 219 5
298 -15z"/>
<path d="M3192 3214 c-17 -11 -26 -13 -36 -5 -16 14 -26 4 -26 -26 0 -19 -5
-23 -34 -23 -82 0 -130 -45 -142 -132 -16 -114 76 -218 191 -218 129 0 226
136 181 254 -20 52 -46 77 -95 92 -23 8 -29 12 -15 13 23 1 68 44 57 54 -12
12 -58 7 -81 -9z m68 -4 c0 -5 -9 -14 -19 -20 -26 -13 -74 -13 -66 1 14 22 85
39 85 19z m-113 -47 c-3 -10 -5 -2 -5 17 0 19 2 27 5 18 2 -10 2 -26 0 -35z
m110 -29 c28 -5 52 -41 64 -94 35 -154 -147 -275 -279 -187 -47 32 -86 116
-78 168 17 104 56 130 186 123 47 -3 95 -7 107 -10z"/>
<path d="M891 3171 c-30 -10 -69 -35 -90 -55 l-36 -36 0 -118 0 -117 257 -3
257 -2 0 113 c0 139 -10 161 -96 203 -76 38 -208 45 -292 15z m168 -3 c11 -10
13 -10 7 0 -10 16 9 15 72 -3 60 -18 132 -80 132 -113 0 -22 -1 -22 -244 -22
-135 0 -247 3 -250 8 -10 17 24 70 59 92 73 45 194 65 224 38z m209 -180 l-3
-33 -245 0 c-228 0 -245 1 -248 18 -9 47 -7 47 253 47 l246 0 -3 -32z m2 -93
l0 -45 -247 2 -248 3 -3 28 c-7 59 -14 57 253 57 l245 0 0 -45z"/>
<path d="M1552 2728 c-7 -7 -12 -31 -12 -55 0 -32 5 -45 19 -53 13 -6 197 -10
529 -10 480 0 510 1 525 18 20 22 22 83 5 100 -17 17 -1049 17 -1066 0z"/>
<path d="M716 2588 c-11 -18 -39 -52 -63 -76 -62 -60 -95 -138 -101 -232 -5
-88 7 -138 47 -202 50 -79 151 -136 167 -94 3 7 -12 53 -33 102 -34 81 -37 97
-37 179 1 90 24 209 58 289 9 21 16 45 16 52 0 26 -36 14 -54 -18z m44 16 c0
-3 -9 -26 -19 -52 -11 -26 -30 -91 -42 -145 -29 -129 -23 -202 24 -322 19 -49
33 -93 31 -97 -20 -32 -120 46 -162 126 -23 44 -27 63 -27 141 0 82 3 96 33
157 36 73 82 120 110 112 12 -4 14 -3 4 4 -11 7 -9 16 8 45 19 32 40 49 40 31z"/>
<path d="M3462 2587 c-11 -12 -28 -39 -37 -60 l-16 -39 -30 41 c-16 23 -32 41
-36 41 -12 0 5 -345 22 -425 35 -170 84 -227 162 -189 31 15 42 30 60 75 35
87 53 216 53 372 l0 140 -24 -22 -24 -22 -11 32 c-26 74 -79 99 -119 56z m63
6 c10 -3 28 -29 41 -57 22 -48 23 -52 6 -76 -9 -14 -29 -49 -43 -78 l-26 -54
-42 77 c-39 70 -41 79 -31 110 11 35 52 85 69 85 5 0 17 -3 26 -7z m-74 -197
c23 -43 50 -110 61 -150 25 -94 35 -250 18 -271 -17 -21 -73 -19 -93 3 -44 49
-74 199 -83 412 l-6 155 31 -35 c16 -19 49 -70 72 -114z m176 -43 c-5 -156
-22 -254 -59 -343 l-15 -35 -1 70 c0 39 -10 114 -22 168 l-21 98 25 54 c25 56
82 145 93 145 3 0 3 -71 0 -157z"/>
<path d="M1640 2563 c0 -10 11 -254 26 -543 24 -508 26 -526 47 -543 20 -17
44 -18 385 -15 325 3 365 5 376 20 8 11 17 154 29 465 10 246 21 490 24 541
l6 92 -447 0 c-418 0 -446 -1 -446 -17z m418 -280 l20 -28 -26 -45 c-14 -25
-29 -49 -32 -53 -7 -8 -84 25 -93 40 -3 5 9 32 25 61 25 43 35 52 58 52 19 0
35 -9 48 -27z m145 -4 c11 -20 22 -29 32 -25 20 7 19 1 -7 -45 -21 -37 -24
-39 -71 -39 -38 0 -47 3 -39 13 7 8 -1 28 -29 70 l-38 57 67 0 c64 0 68 -1 85
-31z m96 -157 c17 -27 31 -56 31 -64 0 -29 -64 -65 -87 -49 -5 3 -23 29 -40
58 l-32 52 42 25 c23 14 45 25 48 26 4 0 21 -22 38 -48z m-324 -12 c27 -42 31
-55 15 -45 -5 3 -19 -9 -30 -27 -11 -18 -30 -36 -42 -40 -13 -3 19 -6 70 -7
l92 -1 0 -55 0 -55 -57 0 c-32 0 -63 4 -69 8 -12 8 -76 112 -69 112 3 0 -4 9
-15 20 -24 24 -25 32 -4 71 14 29 14 32 -3 45 -16 12 -12 13 34 14 51 0 54 -2
78 -40z m258 -112 l66 -1 -26 -51 c-30 -60 -37 -66 -80 -66 -20 0 -33 -5 -33
-12 0 -7 -11 6 -25 28 l-25 42 23 40 c12 22 24 36 28 31 3 -5 35 -10 72 -11z"/>
<path d="M840 1718 c-34 -17 -51 -35 -69 -71 -23 -46 -23 -52 -12 -116 13 -74
48 -157 87 -208 20 -27 24 -43 24 -107 0 -41 -4 -78 -10 -81 -5 -3 -10 -17
-10 -30 0 -21 5 -23 51 -27 62 -4 79 10 55 47 -11 16 -16 47 -16 95 0 64 3 73
34 114 72 95 105 273 60 332 -52 70 -122 89 -194 52z m143 -16 c30 -18 67 -85
67 -121 0 -36 -29 -140 -52 -185 -28 -56 -67 -96 -94 -96 -66 0 -160 223 -134
318 25 94 127 134 213 84z m-53 -486 c0 -41 5 -78 10 -81 6 -3 10 -15 10 -26
0 -16 -7 -19 -45 -19 -49 0 -56 10 -29 48 11 17 15 40 12 87 -3 62 -2 65 20
65 21 0 22 -4 22 -74z"/>
<path d="M3236 1718 c-19 -30 -226 -570 -226 -590 0 -8 8 -22 18 -31 16 -15
48 -17 235 -17 232 0 248 3 246 53 0 12 -51 152 -112 312 -116 301 -129 322
-161 273z m43 -5 c18 -36 221 -570 221 -584 0 -36 -20 -39 -242 -39 -217 0
-219 0 -229 23 -8 18 9 71 102 312 61 160 113 293 116 298 7 12 22 8 32 -10z"/>
<path d="M3224 1455 c-4 -9 -2 -21 4 -27 15 -15 44 -1 40 19 -4 23 -36 29 -44
8z m30 -16 c-3 -5 -10 -7 -15 -3 -5 3 -7 10 -3 15 3 5 10 7 15 3 5 -3 7 -10 3
-15z"/>
<path d="M3293 1354 c-7 -18 6 -45 24 -51 6 -2 18 3 27 12 12 12 13 21 6 36
-13 23 -48 25 -57 3z m47 -14 c0 -13 -7 -20 -20 -20 -19 0 -27 20 -13 33 13
14 33 6 33 -13z"/>
<path d="M3152 1268 c-28 -28 -7 -78 33 -78 27 0 45 18 45 45 0 27 -18 45 -45
45 -12 0 -26 -5 -33 -12z m58 -13 c18 -22 8 -50 -19 -50 -32 0 -49 28 -32 49
17 20 35 20 51 1z"/>
<path d="M1285 778 c-34 -27 -55 -75 -55 -128 0 -90 51 -150 127 -150 24 0 57
7 72 15 81 42 81 228 0 270 -42 22 -111 19 -144 -7z m132 -32 c26 -22 28 -30
28 -96 0 -66 -2 -74 -28 -96 -77 -66 -164 15 -142 132 14 77 86 108 142 60z"/>
<path d="M1540 650 c0 -143 1 -150 20 -150 18 0 20 7 20 60 0 53 2 60 20 60
12 0 38 -23 67 -60 33 -41 55 -60 71 -60 12 0 22 3 22 6 0 4 -22 32 -49 63
l-49 56 29 26 c29 26 37 66 23 104 -10 26 -59 45 -119 45 l-55 0 0 -150z m128
98 c36 -36 -2 -98 -60 -98 -27 0 -28 2 -28 55 l0 55 38 0 c21 0 43 -5 50 -12z"/>
<path d="M1834 781 c-35 -21 -64 -83 -64 -134 1 -49 34 -113 69 -131 34 -18
107 -21 145 -6 24 9 26 14 26 75 l0 65 -55 0 c-42 0 -55 -3 -55 -15 0 -11 11
-15 36 -15 l35 0 -3 -42 c-3 -42 -4 -43 -44 -46 -52 -4 -90 25 -104 79 -21 77
25 159 89 159 15 0 43 -9 64 -19 l37 -19 0 24 c0 17 -8 27 -26 34 -42 16 -116
12 -150 -9z"/>
<path d="M2125 788 c-9 -24 -95 -282 -95 -285 0 -2 9 -3 20 -3 14 0 23 11 31
40 l12 41 60 -3 c59 -3 61 -4 72 -38 8 -23 19 -36 33 -38 20 -3 18 5 -29 147
-47 140 -53 151 -75 151 -14 0 -27 -6 -29 -12z m32 -166 c-21 -2 -41 -2 -43 1
-2 2 6 32 18 68 l21 64 22 -65 22 -65 -40 -3z"/>
<path d="M2300 650 c0 -143 1 -150 20 -150 19 0 20 7 20 123 l1 122 62 -120
c48 -94 67 -121 85 -123 22 -3 22 -3 22 147 0 146 -1 151 -21 151 -19 0 -20
-5 -17 -114 2 -63 1 -113 -2 -111 -3 2 -30 53 -60 114 -50 102 -57 111 -82
111 l-28 0 0 -150z"/>
<path d="M2550 785 c0 -8 9 -15 20 -15 19 0 20 -7 20 -120 0 -113 -1 -120 -20
-120 -11 0 -20 -7 -20 -15 0 -12 13 -15 60 -15 47 0 60 3 60 15 0 8 -9 15 -20
15 -19 0 -20 7 -20 120 0 113 1 120 20 120 11 0 20 7 20 15 0 12 -13 15 -60
15 -47 0 -60 -3 -60 -15z"/>
<path d="M2755 778 c-34 -27 -55 -75 -55 -128 0 -94 51 -150 134 -150 54 0 79
12 89 43 8 20 0 21 -33 2 -39 -22 -87 -19 -115 9 -46 46 -45 149 2 192 32 30
75 31 120 2 l35 -21 -7 24 c-11 37 -34 49 -91 49 -37 0 -59 -6 -79 -22z"/>
</g>
</svg>
