<?xml version="1.0" standalone="no"?>
<!DOCTYPE svg PUBLIC "-//W3C//DTD SVG 20010904//EN"
 "http://www.w3.org/TR/2001/REC-SVG-20010904/DTD/svg10.dtd">
<svg version="1.0" xmlns="http://www.w3.org/2000/svg"
 width="225.000000pt" height="225.000000pt" viewBox="0 0 225.000000 225.000000"
 preserveAspectRatio="xMidYMid meet">

<g transform="translate(0.000000,225.000000) scale(0.100000,-0.100000)"
fill="#000000" stroke="none">
<path d="M1101 2236 c-8 -9 -11 -57 -9 -146 3 -111 6 -135 20 -143 12 -8 21
-7 32 2 13 11 16 37 16 145 0 130 -6 156 -36 156 -6 0 -17 -6 -23 -14z"/>
<path d="M553 2083 c-25 -10 -11 -50 56 -153 70 -109 99 -131 120 -92 8 15 -3
39 -63 133 -70 109 -85 124 -113 112z"/>
<path d="M1684 2073 c-21 -7 -156 -221 -152 -240 2 -10 13 -19 25 -21 18 -3
35 17 98 111 73 109 83 138 52 150 -7 2 -17 2 -23 0z"/>
<path d="M981 1744 c-204 -55 -368 -225 -417 -430 -22 -93 -14 -226 18 -315
33 -90 68 -147 133 -218 70 -75 94 -129 109 -249 l12 -97 289 0 290 0 12 94
c15 126 35 172 107 251 111 120 166 255 166 405 0 162 -53 290 -169 406 -83
83 -179 137 -279 158 -73 15 -206 13 -271 -5z m235 -55 c95 -17 198 -72 268
-143 100 -102 146 -215 146 -362 0 -140 -46 -249 -152 -361 -62 -67 -99 -146
-112 -245 l-10 -78 -233 0 -233 0 0 38 c0 49 -25 146 -51 197 -11 22 -42 63
-69 90 -105 108 -150 219 -150 365 0 109 25 195 81 279 114 171 314 257 515
220z"/>
<path d="M1105 1607 c-11 -9 -15 -20 -11 -34 5 -16 18 -22 61 -27 167 -19 316
-151 339 -298 3 -21 8 -53 11 -72 6 -37 29 -53 51 -35 32 26 4 170 -49 261
-51 87 -164 171 -262 196 -78 19 -121 22 -140 9z"/>
<path d="M194 1695 c-4 -8 -4 -21 -1 -29 6 -14 222 -136 243 -136 18 0 35 26
28 44 -7 18 -222 136 -248 136 -9 0 -19 -7 -22 -15z"/>
<path d="M1902 1649 c-63 -34 -116 -68 -119 -76 -3 -8 2 -22 11 -31 16 -16 23
-14 111 32 145 75 157 83 153 109 -5 37 -37 30 -156 -34z"/>
<path d="M835 355 c-27 -27 -33 -79 -12 -106 27 -36 52 -39 307 -39 l252 0 29
29 c37 38 39 82 4 116 l-24 25 -266 0 -266 0 -24 -25z m530 -55 c0 -13 -35
-15 -242 -18 -239 -2 -243 -2 -243 18 0 20 4 20 243 18 207 -3 242 -5 242 -18z"/>
<path d="M902 147 c-13 -14 -22 -36 -22 -54 0 -84 24 -93 245 -93 219 0 245
10 245 89 0 16 -9 40 -21 55 l-20 26 -203 0 c-199 0 -203 0 -224 -23z m398
-57 c0 -19 -7 -20 -174 -20 -106 0 -177 4 -181 10 -16 25 13 30 181 30 167 0
174 -1 174 -20z"/>
</g>
</svg>
