<?xml version="1.0" standalone="no"?>
<!DOCTYPE svg PUBLIC "-//W3C//DTD SVG 20010904//EN"
 "http://www.w3.org/TR/2001/REC-SVG-20010904/DTD/svg10.dtd">
<svg version="1.0" xmlns="http://www.w3.org/2000/svg"
 width="640.000000pt" height="640.000000pt" viewBox="0 0 640.000000 640.000000"
 preserveAspectRatio="xMidYMid meet">

<g transform="translate(0.000000,640.000000) scale(0.100000,-0.100000)"
fill="#000000" stroke="none">
<path d="M3617 5853 c-4 -3 -7 -194 -7 -423 0 -475 -7 -440 90 -459 78 -15
298 -30 482 -33 87 -2 158 -4 158 -6 0 -9 -74 -32 -88 -28 -18 6 -539 -68
-549 -77 -20 -21 24 -21 149 0 79 12 150 22 158 20 8 -1 -66 -20 -165 -41
-193 -42 -250 -60 -240 -76 8 -13 77 -13 141 -1 101 19 403 61 515 71 138 13
231 5 556 -45 244 -38 303 -43 303 -22 0 17 -25 24 -292 83 -120 26 -216 49
-214 51 2 2 90 -10 195 -27 224 -35 201 -33 201 -17 0 14 -488 91 -514 81 -8
-3 -34 1 -57 9 l-44 15 65 6 c36 3 137 8 225 10 173 6 392 31 412 48 10 8 13
104 13 439 l0 429 -743 0 c-409 0 -747 -3 -750 -7z m1433 -423 l0 -370 -690 0
-690 0 0 370 0 370 690 0 690 0 0 -370z m-672 -409 c21 -13 10 -46 -16 -49
-27 -4 -40 22 -22 43 14 17 20 18 38 6z m53 -120 c96 -29 284 -75 474 -116
280 -61 261 -73 -37 -25 -255 41 -411 60 -488 60 -85 0 -287 -23 -524 -60
-104 -17 -201 -30 -215 -29 l-26 0 25 11 c14 5 162 41 330 78 168 38 323 75
345 84 51 19 43 19 116 -3z"/>
<path d="M4347 5014 c-14 -15 -6 -34 14 -34 14 0 19 5 17 17 -3 18 -20 27 -31
17z"/>
<path d="M1544 5842 c-6 -4 -13 -15 -17 -24 -3 -10 -18 -20 -32 -24 -14 -3
-25 -12 -25 -20 0 -11 -19 -14 -84 -14 -69 0 -88 -4 -110 -21 l-26 -20 0 -427
c0 -235 4 -432 8 -439 20 -31 70 -33 772 -33 l709 0 26 23 26 22 0 355 c0 195
-1 388 -1 428 0 90 -17 112 -85 112 -34 0 -47 5 -55 20 -10 19 -21 20 -160 20
-139 0 -151 -1 -162 -20 -12 -19 -24 -20 -335 -20 -203 0 -323 4 -323 10 0 5
-13 16 -29 24 -16 9 -31 24 -34 36 -5 20 -41 27 -63 12z m79 -154 c56 -66 -40
-149 -105 -91 -28 25 -23 78 9 103 32 25 69 20 96 -12z m1015 10 c17 -17 15
-74 -4 -92 -12 -13 -40 -16 -135 -16 -66 0 -129 4 -139 10 -26 14 -34 57 -15
86 15 23 19 24 148 24 90 0 137 -4 145 -12z m-496 -54 c60 -19 147 -82 182
-132 116 -168 83 -402 -75 -518 -77 -56 -148 -77 -249 -72 -108 6 -184 41
-257 121 -72 79 -97 151 -91 265 5 107 28 162 97 235 105 111 246 147 393 101z
m-482 -118 c0 -2 -11 -29 -25 -59 -53 -115 -53 -238 1 -356 13 -29 24 -57 24
-62 0 -5 -81 -9 -180 -9 l-180 0 0 245 0 245 180 0 c99 0 180 -2 180 -4z
m1088 -233 l-3 -238 -182 -3 c-101 -1 -183 0 -183 2 0 3 9 20 20 38 59 101 64
251 11 363 -17 37 -31 69 -31 71 0 2 83 4 185 4 l185 0 -2 -237z"/>
<path d="M2384 5676 c-3 -8 -4 -25 -2 -38 3 -22 6 -23 113 -23 l110 0 0 35 0
35 -108 3 c-87 2 -108 0 -113 -12z m214 -23 l-3 -28 -100 0 -100 0 -3 28 -3
27 106 0 106 0 -3 -27z"/>
<path d="M1901 5611 c-67 -26 -113 -60 -156 -119 -125 -173 -59 -426 134 -516
66 -30 216 -30 283 1 71 32 141 103 173 174 25 56 27 70 23 153 -3 73 -10 101
-30 141 -32 62 -103 130 -166 158 -68 30 -190 34 -261 8z m241 -39 c202 -89
249 -342 94 -498 -98 -97 -228 -119 -350 -60 -63 31 -105 75 -142 149 -39 75
-39 180 0 257 31 62 65 102 116 133 80 50 196 58 282 19z"/>
<path d="M1910 5505 c-94 -55 -134 -125 -128 -225 7 -132 96 -221 228 -228 56
-3 74 0 117 21 96 49 136 122 131 234 -3 60 -8 78 -33 115 -17 23 -50 56 -74
73 -37 26 -53 30 -119 33 -68 2 -82 0 -122 -23z m168 -7 c86 -21 162 -123 162
-214 0 -36 -34 -111 -63 -142 -49 -53 -138 -81 -204 -63 -177 48 -224 276 -80
385 56 42 112 53 185 34z"/>
<path d="M1964 5375 c-48 -33 -56 -122 -14 -160 10 -9 39 -20 64 -22 40 -5 48
-2 76 25 64 64 22 172 -67 172 -21 0 -48 -7 -59 -15z"/>
<path d="M1506 4047 c-17 -17 -26 -43 -34 -100 -20 -130 -40 -117 178 -117
171 0 190 2 190 17 0 65 -24 200 -38 211 -11 8 -57 12 -144 12 -121 0 -130 -1
-152 -23z"/>
<path d="M4420 3953 c-39 -15 -39 -24 -40 -510 0 -265 4 -482 9 -496 5 -13 17
-27 27 -31 31 -12 394 -19 578 -11 155 6 181 10 197 26 18 18 19 42 19 502 0
265 -4 487 -8 493 -21 31 -53 34 -409 33 -197 0 -365 -3 -373 -6z m720 -518
l0 -405 -345 0 -345 0 0 405 0 405 345 0 345 0 0 -405z m-321 -449 c25 -30
-16 -67 -44 -40 -18 19 -19 26 -3 42 16 16 33 15 47 -2z"/>
<path d="M2844 3934 c-17 -8 -36 -26 -43 -40 -8 -17 -11 -166 -11 -495 0 -523
-1 -511 67 -545 35 -17 64 -19 348 -19 345 0 372 4 406 59 18 29 19 55 19 504
0 522 0 520 -61 541 -21 7 -146 11 -363 11 -277 0 -336 -3 -362 -16z m447 -47
c47 -31 82 -101 74 -147 -27 -147 -215 -185 -289 -59 -22 38 -20 117 4 157 44
71 143 95 211 49z m23 -407 c72 -27 139 -88 172 -156 38 -78 38 -180 0 -259
-93 -189 -327 -232 -486 -89 -118 107 -127 296 -20 417 84 97 216 131 334 87z"/>
<path d="M3168 3886 c-98 -35 -125 -165 -48 -230 82 -69 206 -24 226 81 5 28
2 47 -15 78 -35 66 -99 93 -163 71z m100 -83 c60 -66 -32 -159 -105 -108 -30
21 -39 69 -18 101 32 49 82 52 123 7z"/>
<path d="M3188 3789 c-22 -12 -23 -42 -3 -59 32 -26 81 13 59 48 -14 21 -33
25 -56 11z"/>
<path d="M3111 3443 c-68 -24 -136 -98 -157 -168 -65 -225 161 -419 371 -319
167 79 205 294 75 425 -74 74 -186 98 -289 62z m196 -130 c129 -104 31 -299
-134 -268 -75 14 -130 103 -113 181 26 115 156 161 247 87z"/>
<path d="M3154 3256 c-39 -33 -39 -89 0 -122 38 -34 80 -31 118 6 25 26 29 36
24 63 -13 70 -90 98 -142 53z"/>
<path d="M1389 3782 c-42 -38 -48 -77 -48 -322 0 -244 6 -292 43 -328 l26 -27
213 -3 c311 -5 319 -1 327 166 5 103 6 106 30 112 14 3 26 12 26 20 1 8 2 23
3 33 0 9 8 17 16 17 21 0 19 28 -2 32 -11 2 -18 13 -18 28 0 17 -7 26 -25 30
-24 6 -25 9 -30 105 -5 106 -16 136 -57 154 -15 7 -110 11 -248 11 l-225 0
-31 -28z m491 -42 c19 -19 20 -33 20 -280 0 -247 -1 -261 -20 -280 -19 -19
-33 -20 -234 -20 -211 0 -215 0 -230 22 -14 19 -16 63 -16 280 0 245 1 259 20
278 19 19 33 20 230 20 197 0 211 -1 230 -20z"/>
<path d="M1432 3728 c-9 -9 -12 -82 -12 -269 0 -226 2 -258 17 -270 12 -11 63
-15 205 -17 160 -3 193 -1 214 13 l24 15 0 258 c0 187 -3 261 -12 270 -17 17
-419 17 -436 0z m416 -20 c17 -17 17 -479 0 -496 -8 -8 -68 -12 -204 -12 -166
0 -193 2 -198 16 -12 31 -7 479 6 492 17 17 379 17 396 0z"/>
<path d="M1640 3460 c0 -5 5 -10 10 -10 6 0 10 5 10 10 0 6 -4 10 -10 10 -5 0
-10 -4 -10 -10z"/>
<path d="M1708 3463 c18 -2 45 -2 60 0 15 2 0 4 -33 4 -33 0 -45 -2 -27 -4z"/>
<path d="M1460 3059 c0 -47 23 -166 36 -186 14 -22 20 -23 153 -23 120 0 140
2 154 18 15 17 36 122 37 185 l0 27 -190 0 c-185 0 -190 -1 -190 -21z"/>
<path d="M1453 2193 c-13 -2 -32 -16 -43 -30 -20 -25 -20 -39 -20 -600 0 -634
-2 -616 64 -647 28 -13 72 -16 261 -16 l227 0 29 29 29 29 2 354 c2 194 2 459
1 588 -2 211 -4 237 -21 260 -10 13 -30 28 -43 31 -26 8 -450 9 -486 2z m305
-100 c3 -10 -14 -13 -62 -13 -61 0 -77 6 -59 24 12 12 116 2 121 -11z m192
-548 l0 -455 -255 0 -255 0 0 455 0 455 255 0 255 0 0 -455z m-226 -531 c33
-32 13 -74 -35 -74 -57 0 -50 88 8 90 6 0 19 -7 27 -16z"/>
<path d="M4442 2160 c-12 -5 -27 -21 -32 -35 -6 -16 -10 -260 -10 -636 l0
-610 25 -24 24 -25 356 0 c403 0 388 -3 400 82 3 24 5 306 3 626 l-3 584 -28
24 -28 24 -342 -1 c-188 0 -352 -4 -365 -9z m688 -475 l0 -355 -330 0 -330 0
0 348 c0 192 3 352 7 355 3 4 152 7 330 7 l323 0 0 -355z m-460 -492 c17 -47
26 -57 58 -65 52 -14 54 -88 3 -88 -21 0 -58 -38 -63 -64 -1 -10 -11 -24 -20
-30 -22 -14 -51 2 -56 30 -5 26 -42 64 -63 64 -51 0 -49 74 4 88 30 8 48 29
61 75 4 11 15 17 36 17 24 0 32 -6 40 -27z m367 -39 c-3 -3 -12 -4 -19 -1 -8
3 -5 6 6 6 11 1 17 -2 13 -5z m-85 -51 c-3 -16 -7 -22 -10 -15 -4 13 4 42 11
42 2 0 2 -12 -1 -27z m126 -14 c-3 -20 -5 -19 -9 9 -3 20 -2 29 4 23 5 -5 7
-19 5 -32z m-23 -49 c-3 -5 -12 -10 -18 -10 -7 0 -6 4 3 10 19 12 23 12 15 0z"/>
<path d="M4620 1190 c0 -5 5 -10 10 -10 6 0 10 5 10 10 0 6 -4 10 -10 10 -5 0
-10 -4 -10 -10z"/>
<path d="M4583 1114 c-15 -24 -15 -29 -2 -53 20 -36 71 -41 93 -9 21 30 20 44
-4 68 -28 28 -66 26 -87 -6z"/>
<path d="M4520 1079 c0 -5 5 -7 10 -4 6 3 10 8 10 11 0 2 -4 4 -10 4 -5 0 -10
-5 -10 -11z"/>
<path d="M4725 1080 c3 -5 10 -10 16 -10 5 0 9 5 9 10 0 6 -7 10 -16 10 -8 0
-12 -4 -9 -10z"/>
<path d="M4620 980 c0 -5 5 -10 10 -10 6 0 10 5 10 10 0 6 -4 10 -10 10 -5 0
-10 -4 -10 -10z"/>
<path d="M2757 1916 c-49 -18 -158 -124 -188 -184 -31 -62 -36 -143 -14 -218
11 -37 20 -114 25 -204 7 -163 21 -209 74 -241 45 -27 94 -24 147 9 70 45 116
110 159 224 22 58 68 110 113 127 16 6 71 11 123 11 144 0 197 -29 234 -127
32 -85 58 -132 103 -180 80 -86 160 -106 220 -53 46 40 59 90 67 255 4 77 13
154 20 170 21 49 17 162 -8 218 -28 62 -149 180 -202 196 -76 23 -151 7 -207
-42 l-36 -32 -161 -3 c-189 -4 -216 0 -259 37 -58 50 -134 64 -210 37z m128
-117 c52 -15 119 -82 134 -134 16 -58 14 -84 -13 -142 -82 -175 -336 -135
-371 58 -15 82 47 185 130 214 49 17 69 18 120 4z m782 -25 c67 -41 96 -100
91 -181 -3 -51 -9 -69 -35 -100 -63 -79 -161 -104 -242 -61 -69 36 -104 86
-109 158 -12 169 153 272 295 184z m-411 -105 c20 -17 19 -132 -2 -153 -23
-23 -89 -21 -114 4 -35 35 -23 152 17 163 26 8 83 0 99 -14z"/>
<path d="M2792 1758 c-7 -7 -12 -22 -12 -33 0 -27 -40 -65 -68 -65 -14 0 -27
-9 -34 -25 -16 -35 3 -75 35 -75 28 0 67 -38 67 -66 0 -27 19 -44 50 -44 32 0
50 17 50 45 0 27 37 62 69 67 52 7 55 82 3 94 -37 9 -72 43 -72 70 0 37 -61
59 -88 32z m80 -105 c22 -20 23 -61 1 -85 -34 -38 -103 -11 -103 40 0 54 62
81 102 45z"/>
<path d="M2794 1625 c-11 -43 34 -73 64 -43 17 17 15 55 -4 62 -33 13 -54 6
-60 -19z"/>
<path d="M3539 1741 c-20 -16 -22 -23 -14 -46 13 -36 46 -48 74 -29 26 19 27
55 3 77 -24 22 -34 21 -63 -2z"/>
<path d="M3446 1644 c-9 -8 -16 -24 -16 -34 0 -22 26 -50 46 -50 29 0 54 21
54 45 0 28 -24 55 -50 55 -10 0 -26 -7 -34 -16z"/>
<path d="M3624 1635 c-15 -23 -15 -27 0 -50 29 -44 86 -28 86 25 0 53 -57 69
-86 25z"/>
<path d="M3530 1541 c-16 -31 -12 -49 15 -67 22 -14 30 -15 50 -4 27 15 34 57
13 78 -19 19 -66 15 -78 -7z"/>
<path d="M3160 1630 c0 -5 18 -10 40 -10 22 0 40 5 40 10 0 6 -18 10 -40 10
-22 0 -40 -4 -40 -10z"/>
<path d="M3160 1575 c0 -16 23 -18 54 -6 18 7 18 8 -5 14 -37 10 -49 8 -49 -8z"/>
</g>
</svg>
