<?xml version="1.0" standalone="no"?>
<!DOCTYPE svg PUBLIC "-//W3C//DTD SVG 20010904//EN"
 "http://www.w3.org/TR/2001/REC-SVG-20010904/DTD/svg10.dtd">
<svg version="1.0" xmlns="http://www.w3.org/2000/svg"
 width="512.000000pt" height="512.000000pt" viewBox="0 0 512.000000 512.000000"
 preserveAspectRatio="xMidYMid meet">

<g transform="translate(0.000000,512.000000) scale(0.100000,-0.100000)"
fill="#000000" stroke="none">
<path d="M2025 5106 c-37 -17 -70 -52 -84 -89 -7 -17 -11 -127 -11 -283 l0
-254 636 0 635 0 -3 269 c-3 254 -4 271 -24 297 -11 15 -33 37 -48 48 -27 21
-40 21 -549 23 -420 2 -528 0 -552 -11z"/>
<path d="M1518 3973 c-114 -115 -212 -221 -218 -236 -5 -16 -10 -73 -10 -128
l0 -99 1275 0 1275 0 0 99 c0 55 -5 112 -10 128 -6 15 -104 121 -218 236
l-207 207 -840 0 -840 0 -207 -207z"/>
<path d="M1290 3040 l0 -170 1275 0 1275 0 0 170 0 170 -1275 0 -1275 0 0
-170z"/>
<path d="M1290 2400 l0 -170 1275 0 1275 0 0 170 0 170 -1275 0 -1275 0 0
-170z"/>
<path d="M1290 1435 l0 -495 1275 0 1275 0 0 495 0 495 -1275 0 -1275 0 0
-495z"/>
<path d="M1293 538 c3 -73 12 -122 29 -168 64 -176 205 -305 384 -350 74 -19
112 -20 859 -20 747 0 785 1 859 20 103 26 177 69 256 149 105 106 159 244
160 404 l0 67 -1276 0 -1277 0 6 -102z"/>
</g>
</svg>
