<?xml version="1.0" standalone="no"?>
<!DOCTYPE svg PUBLIC "-//W3C//DTD SVG 20010904//EN"
 "http://www.w3.org/TR/2001/REC-SVG-20010904/DTD/svg10.dtd">
<svg version="1.0" xmlns="http://www.w3.org/2000/svg"
 width="225.000000pt" height="225.000000pt" viewBox="0 0 225.000000 225.000000"
 preserveAspectRatio="xMidYMid meet">

<g transform="translate(0.000000,225.000000) scale(0.100000,-0.100000)"
fill="#000000" stroke="none">
<path d="M945 2001 c-25 -11 -51 -40 -59 -67 -6 -18 -16 -22 -75 -26 -78 -6
-123 -28 -152 -74 -18 -30 -19 -58 -19 -804 0 -746 1 -774 19 -804 11 -17 35
-40 53 -51 32 -19 51 -20 433 -20 445 0 444 0 485 68 19 31 20 56 20 807 0
751 -1 776 -20 807 -27 45 -73 65 -157 71 -67 4 -73 6 -73 27 0 12 -12 32 -26
46 -25 23 -30 24 -217 26 -106 1 -201 -1 -212 -6z m365 -131 l0 -50 109 0 c86
0 113 -3 125 -16 14 -14 16 -97 16 -771 0 -690 -1 -758 -17 -775 -15 -17 -41
-18 -396 -18 -340 0 -382 2 -399 17 -17 15 -18 52 -18 771 0 689 1 757 17 774
14 15 32 18 120 18 l103 0 0 50 0 50 170 0 170 0 0 -50z"/>
<path d="M784 1377 c-2 -7 -3 -85 -2 -172 l3 -160 354 -3 c253 -2 358 1 367 9
11 9 14 46 14 159 0 82 -3 155 -6 164 -5 14 -47 16 -365 16 -285 0 -361 -3
-365 -13z"/>
<path d="M784 997 c-2 -7 -3 -85 -2 -172 l3 -160 354 -3 c253 -2 358 1 367 9
11 9 14 46 14 159 0 82 -3 155 -6 164 -5 14 -47 16 -365 16 -285 0 -361 -3
-365 -13z"/>
<path d="M784 617 c-2 -7 -3 -85 -2 -172 l3 -160 359 -3 c281 -2 361 1 368 10
9 15 11 299 2 322 -5 14 -47 16 -365 16 -285 0 -361 -3 -365 -13z"/>
</g>
</svg>
