<?xml version="1.0" standalone="no"?>
<!DOCTYPE svg PUBLIC "-//W3C//DTD SVG 20010904//EN"
 "http://www.w3.org/TR/2001/REC-SVG-20010904/DTD/svg10.dtd">
<svg version="1.0" xmlns="http://www.w3.org/2000/svg"
 width="512.000000pt" height="512.000000pt" viewBox="0 0 512.000000 512.000000"
 preserveAspectRatio="xMidYMid meet">

<g transform="translate(0.000000,512.000000) scale(0.100000,-0.100000)"
fill="#000000" stroke="none">
<path d="M1527 4055 c-548 -155 -1005 -289 -1014 -296 -19 -16 -484 -633 -501
-666 -18 -33 -14 -59 11 -88 17 -19 74 -43 237 -98 l215 -72 5 -592 c5 -576 6
-593 25 -612 24 -23 2023 -851 2055 -851 32 0 2031 828 2055 851 19 19 20 36
25 612 l5 592 215 72 c225 76 260 96 260 147 0 29 -9 42 -280 404 -199 267
-230 303 -265 316 -86 33 -1996 566 -2022 565 -15 -1 -477 -128 -1026 -284z
m1863 -115 c448 -126 823 -233 834 -238 12 -5 -243 -80 -823 -240 l-841 -231
-840 231 c-462 127 -838 233 -836 236 8 7 1650 470 1671 471 11 1 387 -103
835 -229z m-1872 -593 c485 -134 885 -246 888 -249 3 -3 -101 -136 -231 -296
l-235 -291 -228 78 c-125 43 -510 174 -857 291 -347 118 -631 215 -633 216 -2
1 81 115 184 254 160 216 190 251 208 246 11 -3 418 -115 904 -249z m3197 2
c103 -138 185 -252 183 -253 -2 -1 -286 -98 -633 -216 -346 -117 -732 -248
-857 -291 l-228 -78 -235 291 c-130 160 -234 293 -231 296 6 5 1781 499 1803
501 6 0 95 -112 198 -250z m-2240 -2357 c-3 -3 -417 165 -920 373 l-915 378 0
513 c0 405 3 514 13 514 6 0 305 -99 664 -221 613 -208 653 -220 680 -207 16
7 123 130 253 290 l225 277 3 -956 c1 -526 0 -958 -3 -961z m412 1618 c119
-145 220 -261 236 -268 27 -13 67 -1 680 207 359 122 658 221 665 221 9 0 12
-109 12 -514 l0 -513 -902 -373 c-497 -205 -911 -375 -920 -378 -17 -4 -18 46
-18 959 1 955 1 964 20 939 11 -14 113 -140 227 -280z"/>
</g>
</svg>
